<mxfile host="app.diagrams.net" modified="2021-05-22T08:21:14.832Z" agent="5.0 (Macintosh; Intel Mac OS X 10_15_7) AppleWebKit/537.36 (KHTML, like Gecko) Chrome/90.0.4430.212 Safari/537.36" etag="Ro2i1GVcxe7QqMosVdMA" version="14.6.13" type="github">
  <diagram id="evhqvJ9WRw2NddTgYNEN" name="第 1 页">
    <mxGraphModel dx="1126" dy="771" grid="1" gridSize="10" guides="1" tooltips="1" connect="1" arrows="1" fold="1" page="1" pageScale="1" pageWidth="827" pageHeight="1169" math="0" shadow="0">
      <root>
        <mxCell id="0" />
        <mxCell id="1" parent="0" />
        <mxCell id="0EiiD_cbW3VHCqX_TS2o-16" value="" style="rounded=0;whiteSpace=wrap;html=1;" vertex="1" parent="1">
          <mxGeometry x="100" y="60" width="140" height="190" as="geometry" />
        </mxCell>
        <mxCell id="0EiiD_cbW3VHCqX_TS2o-1" value="Actor" style="shape=umlActor;verticalLabelPosition=bottom;verticalAlign=top;html=1;outlineConnect=0;" vertex="1" parent="1">
          <mxGeometry x="70" y="340" width="30" height="60" as="geometry" />
        </mxCell>
        <mxCell id="0EiiD_cbW3VHCqX_TS2o-3" value="前台" style="rounded=0;whiteSpace=wrap;html=1;" vertex="1" parent="1">
          <mxGeometry x="460" y="210" width="120" height="60" as="geometry" />
        </mxCell>
        <mxCell id="0EiiD_cbW3VHCqX_TS2o-4" value="咨询师" style="rounded=0;whiteSpace=wrap;html=1;" vertex="1" parent="1">
          <mxGeometry x="304" y="400" width="120" height="60" as="geometry" />
        </mxCell>
        <mxCell id="0EiiD_cbW3VHCqX_TS2o-5" value="医生" style="rounded=0;whiteSpace=wrap;html=1;" vertex="1" parent="1">
          <mxGeometry x="230" y="570" width="120" height="60" as="geometry" />
        </mxCell>
        <mxCell id="0EiiD_cbW3VHCqX_TS2o-7" value="测量体温" style="rounded=0;whiteSpace=wrap;html=1;" vertex="1" parent="1">
          <mxGeometry x="200" y="380" width="120" height="60" as="geometry" />
        </mxCell>
        <mxCell id="0EiiD_cbW3VHCqX_TS2o-9" value="京东" style="rounded=0;whiteSpace=wrap;html=1;dashed=1;" vertex="1" parent="1">
          <mxGeometry x="110" y="80" width="120" height="30" as="geometry" />
        </mxCell>
        <mxCell id="0EiiD_cbW3VHCqX_TS2o-10" value="营销部" style="rounded=0;whiteSpace=wrap;html=1;" vertex="1" parent="1">
          <mxGeometry x="340" y="90" width="120" height="60" as="geometry" />
        </mxCell>
        <mxCell id="0EiiD_cbW3VHCqX_TS2o-13" value="阿里健康" style="rounded=0;whiteSpace=wrap;html=1;dashed=1;" vertex="1" parent="1">
          <mxGeometry x="110" y="120" width="120" height="30" as="geometry" />
        </mxCell>
        <mxCell id="0EiiD_cbW3VHCqX_TS2o-14" value="美团" style="rounded=0;whiteSpace=wrap;html=1;dashed=1;" vertex="1" parent="1">
          <mxGeometry x="110" y="160" width="120" height="30" as="geometry" />
        </mxCell>
        <mxCell id="0EiiD_cbW3VHCqX_TS2o-15" value="网销" style="rounded=0;whiteSpace=wrap;html=1;dashed=1;" vertex="1" parent="1">
          <mxGeometry x="110" y="200" width="120" height="30" as="geometry" />
        </mxCell>
      </root>
    </mxGraphModel>
  </diagram>
</mxfile>
